<?xml version="1.0" encoding="UTF-8"?><svg id="a" xmlns="http://www.w3.org/2000/svg" viewBox="0 0 500 500"><defs><style>.b{fill:#231f20;}</style></defs><path class="b" d="M180.54,79.85c-13.99,56.01-32.91,111.72-56.25,165.59-.55,1.27,.03,2.74,1.3,3.29,1.27,.55,2.74-.03,3.29-1.3,20.86-48.15,38.21-97.76,51.68-147.75,.77,20.99,3.71,41.94,8.8,62.5l1.5,6.06,47.72-83.54c-9.32,65.76-18.3,132.03-26.86,198.25-17.75,4.18-35.55,8.6-52.9,13.56-17.81,5.09-35.58,10.85-52.8,17.15-1.3,.47-1.96,1.91-1.49,3.21,.37,1.01,1.33,1.64,2.35,1.64,.29,0,.57-.05,.86-.15,17.12-6.25,34.76-11.98,52.46-17.03,16.65-4.76,33.76-9.03,50.84-13.06-2.57,19.89-5.1,39.78-7.59,59.64-24.66,6.02-49.24,12.15-73.65,18.37l-6.64,1.69,6.17,2.98c30.92,14.95,50.62,40.8,64.34,61.65l3.76,5.71,.81-6.79c3.17-26.46,6.43-53,9.75-79.58,38.95-9.49,78.07-18.71,116.97-27.54,1.35-.31,2.19-1.64,1.88-2.99-.3-1.35-1.64-2.19-2.99-1.88-38.31,8.7-76.83,17.77-115.2,27.11,2.49-19.85,5.02-39.72,7.59-59.6,9.79-2.29,19.55-4.51,29.2-6.7,58.84-13.36,119.68-27.17,172.34-53.95,1.23-.63,1.72-2.13,1.1-3.36-.62-1.23-2.13-1.72-3.36-1.1-52.1,26.5-112.64,40.24-171.18,53.53-9.06,2.06-18.22,4.14-27.41,6.28,9.05-69.93,18.56-139.91,28.45-209.28l1.85-12.96-54.46,95.34c-5.52-24.47-7.97-49.44-7.29-74.31m8.6,343.71c-12.91-18.85-30.65-40.43-56.66-54.74,21.68-5.5,43.5-10.94,65.38-16.29-2.96,23.72-5.87,47.4-8.71,71.03Z"/></svg>