<?xml version="1.0" encoding="utf-8"?>
<!-- Generator: Adobe Illustrator 26.2.1, SVG Export Plug-In . SVG Version: 6.00 Build 0)  -->
<svg version="1.1" id="Layer_1" xmlns="http://www.w3.org/2000/svg" xmlns:xlink="http://www.w3.org/1999/xlink" x="0px" y="0px" viewBox="0 0 32.4 32.4" style="enable-background: new 0 0 32.4 32.4" xml:space="preserve">
<style>.st0 {
  fill: #fffbeb;
}

</style>
<g id="a">
</g>
<g>
	<path class="st0" d="M15.9,0c0.1,0,0.3,0,0.4,0c0.1,0,0.2,0,0.2,0c0.5,0,0.9,0.1,1.4,0.1c0.6,0.1,1.3,0.2,1.9,0.3
		c2.7,0.7,5.1,1.9,7.1,3.8c1.7,1.5,3,3.3,3.9,5.3c0.8,1.9,1.3,3.8,1.4,5.9c0,0.6,0,1.1,0,1.7c0,0.7-0.1,1.4-0.3,2.1
		c-0.2,1.3-0.7,2.6-1.2,3.8c-1,2.2-2.4,4-4.3,5.6c-1.5,1.3-3.2,2.2-5.1,2.9c-1.4,0.5-2.9,0.8-4.4,0.9c-0.5,0-1,0.1-1.5,0
		c-0.5,0-1.1-0.1-1.6-0.1c-0.5-0.1-1-0.2-1.5-0.3c-1.5-0.3-2.9-0.9-4.2-1.6c-2-1.1-3.7-2.6-5.1-4.5C1.8,24,0.9,22,0.4,19.7
		c-0.1-0.6-0.2-1.2-0.3-1.8C0,17.6,0,17.2,0,16.8c0-0.1,0-0.2-0.1-0.3c0-0.2,0-0.3,0-0.5c0-0.1,0.1-0.2,0.1-0.4
		c0-0.4,0.1-0.9,0.1-1.3c0.1-0.8,0.2-1.6,0.5-2.4C1.3,9.3,2.6,7,4.4,5C6.5,2.8,9.1,1.3,12,0.5c0.8-0.2,1.6-0.4,2.5-0.4
		c0.4,0,0.8-0.1,1.3-0.1C15.8,0,15.9,0,15.9,0z M26.5,25.7c0-0.1,0-0.1,0-0.2c0-2.7,0-5.4,0-8.2c0-0.4,0-0.7-0.1-1.1
		c-0.1-0.6-0.2-1.2-0.5-1.8c-0.5-1-1.3-1.7-2.3-2.1c-0.5-0.2-1.1-0.3-1.6-0.3c-0.4,0-0.9,0-1.3,0.1c-1.2,0.2-2.2,0.9-2.9,1.9
		c0,0,0,0.1-0.1,0.1c0-0.1,0-0.1,0-0.2c0-0.4,0-0.9,0-1.3c0-0.2,0-0.2-0.2-0.2c0,0,0,0,0,0c-1.2,0-2.4,0-3.5,0c0,0-0.1,0-0.1,0
		c-0.1,0-0.1,0-0.1,0.1c0,0,0,0.1,0,0.1c0,4.3,0,8.6,0,12.9c0,0.1,0,0.1,0,0.2c1.3,0,2.6,0,4,0c0-0.1,0-0.2,0-0.2c0-1.5,0-3.1,0-4.6
		c0-0.8,0-1.6,0-2.4c0-0.4,0.1-0.8,0.3-1.2c0.3-0.7,0.7-1.1,1.4-1.3c0.3-0.1,0.7-0.1,1-0.1c0.6,0,1,0.3,1.4,0.7
		c0.2,0.2,0.3,0.5,0.4,0.8c0.1,0.4,0.2,0.9,0.2,1.4c0,2.3,0,4.5,0,6.8c0,0.1,0,0.1,0,0.2C23.8,25.7,25.2,25.7,26.5,25.7z M11.2,12.4
		c-0.1,0-0.2,0-0.2,0c-1.2,0-2.4,0-3.6,0c-0.3,0-0.3,0-0.3,0.3c0,4.2,0,8.5,0,12.7c0,0,0,0.1,0,0.1c0,0.1,0,0.1,0.1,0.1
		c0.2,0,0.4,0,0.6,0c1.1,0,2.1,0,3.2,0c0.1,0,0.1,0,0.2,0C11.2,21.3,11.2,16.9,11.2,12.4z M9.1,5.8C7.7,5.8,6.7,7,6.7,8.3
		c0,1.3,1.1,2.5,2.4,2.5c1.4,0,2.4-1.1,2.5-2.5C11.6,7,10.5,5.8,9.1,5.8z"></path>
</g>
</svg>
