<?xml version="1.0" encoding="UTF-8"?><svg id="a" xmlns="http://www.w3.org/2000/svg" viewBox="0 0 500 500"><defs><style>.b{fill:#231f20;}</style></defs><path class="b" d="M420.72,219.14c-1.86-2.47-5.81-3.23-8.82-1.7-51.14,26.01-110.85,39.57-168.59,52.69-7.13,1.62-14.33,3.25-21.55,4.92,8.81-67.94,18.05-135.9,27.66-203.26l4.59-32.17-58.86,103.06c-3.95-20.86-5.66-42.02-5.09-63.11l-12.68-1.17c-2.23-.31-22.83,78.28-25.29,85.47-9.04,26.4-19.16,52.55-30.35,78.38-1.19,2.74,.56,5.75,3.89,6.72,3.34,.97,7-.46,8.18-3.19,17.67-40.8,32.8-82.65,45.17-124.89,1.49,13.45,3.87,26.82,7.14,40.05l3.85,15.59,42.18-73.86c-8.19,58.26-16.09,116.89-23.67,175.49-16.84,3.99-33.71,8.2-50.19,12.91-17.78,5.08-35.5,10.83-52.67,17.11-3.23,1.18-4.69,4.29-3.25,6.94,1.06,1.96,3.4,3.13,5.86,3.13,.87,0,1.75-.15,2.6-.46,16.84-6.15,34.23-11.8,51.67-16.78,14.58-4.16,29.54-7.96,44.52-11.55-2.28,17.71-4.54,35.42-6.76,53.11-23.64,5.78-47.2,11.67-70.61,17.63l-13.82,3.52,12.47,6.03c29.84,14.43,49.01,39.62,62.38,59.96l9.96,15.15,2.06-17.13c3.08-25.63,6.22-51.35,9.44-77.09,37.76-9.19,75.69-18.12,113.42-26.69,3.41-.77,5.41-3.67,4.46-6.47-.94-2.8-4.45-4.44-7.88-3.67-36.11,8.21-72.41,16.74-108.58,25.51,2.22-17.66,4.49-35.33,6.77-53.01,8.85-2.06,17.67-4.07,26.41-6.05,58.61-13.31,119.22-27.07,171.92-53.88,3.01-1.53,3.94-4.77,2.07-7.24Zm-228.8,191.15c-11.34-15.25-25.97-31.25-45.62-43.32,17.45-4.41,34.97-8.78,52.54-13.09-2.35,18.82-4.66,37.64-6.93,56.41Z"/></svg>