<svg version="1.1" id="Layer_1" xmlns="http://www.w3.org/2000/svg" x="0" y="0" viewBox="0 0 32.4 32.4" style="enable-background:new 0 0 32.4 32.4" xml:space="preserve"><path d="M15.9 0H16.5c.5 0 .9.1 1.4.1.6.1 1.3.2 1.9.3 2.7.7 5.1 1.9 7.1 3.8 1.7 1.5 3 3.3 3.9 5.3.8 1.9 1.3 3.8 1.4 5.9v1.7c0 .7-.1 1.4-.3 2.1-.2 1.3-.7 2.6-1.2 3.8-1 2.2-2.4 4-4.3 5.6-1.5 1.3-3.2 2.2-5.1 2.9-1.4.5-2.9.8-4.4.9-.5 0-1 .1-1.5 0-.5 0-1.1-.1-1.6-.1l-1.5-.3c-1.5-.3-2.9-.9-4.2-1.6-2-1.1-3.7-2.6-5.1-4.5C1.8 24 .9 22 .4 19.7l-.3-1.8c-.1-.3-.1-.7-.1-1.1 0-.1 0-.2-.1-.3V16c0-.1.1-.2.1-.4 0-.4.1-.9.1-1.3.1-.8.2-1.6.5-2.4.7-2.6 2-4.9 3.8-6.9C6.5 2.8 9.1 1.3 12 .5c.8-.2 1.6-.4 2.5-.4.4 0 .8-.1 1.3-.1h.1zm10.6 25.7V17.3c0-.4 0-.7-.1-1.1-.1-.6-.2-1.2-.5-1.8-.5-1-1.3-1.7-2.3-2.1-.5-.2-1.1-.3-1.6-.3-.4 0-.9 0-1.3.1-1.2.2-2.2.9-2.9 1.9 0 0 0 .1-.1.1v-1.5c0-.2 0-.2-.2-.2h-3.6c-.1 0-.1 0-.1.1v13.2h4V18.5c0-.4.1-.8.3-1.2.3-.7.7-1.1 1.4-1.3.3-.1.7-.1 1-.1.6 0 1 .3 1.4.7.2.2.3.5.4.8.1.4.2.9.2 1.4v7c1.3-.1 2.7-.1 4-.1zM11.2 12.4H7.4c-.3 0-.3 0-.3.3V25.5c0 .1 0 .1.1.1h4V12.4zM9.1 5.8C7.7 5.8 6.7 7 6.7 8.3s1.1 2.5 2.4 2.5c1.4 0 2.4-1.1 2.5-2.5 0-1.3-1.1-2.5-2.5-2.5z" style="fill:#fffbeb"/></svg>